name analog
datacolumns 19
datarows 37
range 0.0 0.018000000000000002
endheader
time	ground_force_vx	ground_force_vy	ground_force_vz	ground_force_px	ground_force_py	ground_force_pz	l_ground_force_vx	l_ground_force_vy	l_ground_force_vz	l_ground_force_px	l_ground_force_py	l_ground_force_pz	ground_torque_x	ground_torque_y	ground_torque_z	l_ground_torque_x	l_ground_torque_y	l_ground_torque_z
0.0	-0.0	-0.0	-0.0	4.590917110443115	27.308181762695312	-259.3427124023437	-8.476517677307129	-25.667335510253903	-385.327880859375	-0.0	-0.0	-0.0	-0.0	-0.0	-0.0	115440.9140625	-8644.3212890625	-4407.697265625
0.0005	-0.0	-0.0	-0.0	4.23435640335083	27.273902893066406	-258.96295166015625	-8.141393661499023	-25.80984306335449	-386.3534240722656	-0.0	-0.0	-0.0	-0.0	-0.0	-0.0	115317.484375	-8473.6337890625	-4391.13623046875
0.001	-0.0	-0.0	-0.0	4.405477046966553	27.57542610168457	-260.78204345703125	-8.502110481262207	-25.749801635742188	-385.81256103515625	-0.0	-0.0	-0.0	-0.0	-0.0	-0.0	115471.3203125	-8775.3681640625	-4336.79833984375
0.0015	-0.0	-0.0	-0.0	4.77018404006958	27.4180965423584	-260.1586303710937	-8.181672096252441	-25.593097686767575	-385.81256103515625	-0.0	-0.0	-0.0	-0.0	-0.0	-0.0	115477.703125	-8735.3759765625	-4395.81689453125
0.002	-0.0	-0.0	-0.0	4.672967433929443	27.60927391052246	-260.158935546875	-7.874825954437256	-25.62693214416504	-384.6846923828125	-0.0	-0.0	-0.0	-0.0	-0.0	-0.0	115306.171875	-8844.279296875	-4397.80517578125
0.0025	-0.0	-0.0	-0.0	4.4605255126953125	27.664350509643555	-258.66217041015625	-7.956363201141357	-25.53842163085937	-385.2483520507813	-0.0	-0.0	-0.0	-0.0	-0.0	-0.0	115169.65625	-8530.9033203125	-4425.2119140625
0.003	-0.0	-0.0	-0.0	4.192893981933594	27.673259735107425	-260.0253295898437	-7.81394624710083	-25.504356384277344	-385.5157470703125	-0.0	-0.0	-0.0	-0.0	-0.0	-0.0	115208.671875	-8558.740234375	-4260.9150390625
0.0035	-0.0	-0.0	-0.0	4.060498237609863	27.58444023132324	-259.7582397460937	-8.190031051635742	-25.428895950317383	-385.1963195800781	-0.0	-0.0	-0.0	-0.0	-0.0	-0.0	114975.234375	-8923.4951171875	-4317.94140625
0.004	-0.0	-0.0	-0.0	4.7933125495910645	27.341333389282227	-259.6732177734375	-7.992066860198975	-25.390100479125977	-384.3333435058594	-0.0	-0.0	-0.0	-0.0	-0.0	-0.0	115019.171875	-8940.0400390625	-4450.41455078125
0.0045000000000000005	-0.0	-0.0	-0.0	4.861087322235107	27.553098678588867	-258.7943420410156	-7.696717262268066	-25.394588470458984	-384.3327941894531	-0.0	-0.0	-0.0	-0.0	-0.0	-0.0	115003.859375	-8762.94921875	-4272.24560546875
0.005	-0.0	-0.0	-0.0	4.394479751586914	27.441740036010746	-258.6194152832031	-7.861542224884033	-25.19286346435547	-385.28173828125	-0.0	-0.0	-0.0	-0.0	-0.0	-0.0	114820.4765625	-8960.2900390625	-4253.94775390625
0.0055	-0.0	-0.0	-0.0	4.683231353759766	27.753698348999023	-257.9115600585937	-7.730090618133545	-25.21738624572754	-383.6694030761719	-0.0	-0.0	-0.0	-0.0	-0.0	-0.0	115011.921875	-8881.306640625	-4191.47314453125
0.006	-0.0	-0.0	-0.0	4.694700717926025	27.641572952270508	-258.5718078613281	-7.497303485870361	-25.26000213623047	-383.68011474609375	-0.0	-0.0	-0.0	-0.0	-0.0	-0.0	114864.0859375	-8890.44921875	-4228.06103515625
0.006500000000000001	-0.0	-0.0	-0.0	5.084999084472656	27.47456741333008	-257.5550537109375	-8.204756736755371	-25.106918334960938	-384.0667724609375	-0.0	-0.0	-0.0	-0.0	-0.0	-0.0	114715.0859375	-8835.0625	-4327.9990234375
0.007	-0.0	-0.0	-0.0	4.572301864624023	27.70775604248047	-258.5703125	-8.106124877929688	-25.4366455078125	-383.58599853515625	-0.0	-0.0	-0.0	-0.0	-0.0	-0.0	114718.0078125	-9076.638671875	-4313.51171875
0.0075	-0.0	-0.0	-0.0	4.8173675537109375	27.92935943603516	-258.6593322753906	-8.116636276245117	-25.37020492553711	-382.4075012207031	-0.0	-0.0	-0.0	-0.0	-0.0	-0.0	114712.5703125	-9077.5185546875	-4383.98779296875
0.008	-0.0	-0.0	-0.0	4.829915523529053	28.065773010253903	-260.24395751953125	-8.28339958190918	-25.30404281616211	-383.1063537597656	-0.0	-0.0	-0.0	-0.0	-0.0	-0.0	114552.875	-9108.396484375	-4280.2021484375
0.0085	-0.0	-0.0	-0.0	4.695045471191406	27.963979721069336	-260.5666198730469	-8.128158569335938	-25.11644744873047	-382.23345947265625	-0.0	-0.0	-0.0	-0.0	-0.0	-0.0	114434.5390625	-9129.166015625	-4335.67236328125
0.009000000000000001	-0.0	-0.0	-0.0	4.972645282745361	28.10572052001953	-261.2090759277344	-8.01712703704834	-25.53655433654785	-382.4973449707031	-0.0	-0.0	-0.0	-0.0	-0.0	-0.0	114127.984375	-9006.7666015625	-4395.27099609375
0.0095	-0.0	-0.0	-0.0	5.03845739364624	28.304706573486328	-261.0	-8.472572326660156	-25.414220809936523	-380.6639404296875	-0.0	-0.0	-0.0	-0.0	-0.0	-0.0	114119.9921875	-9388.50390625	-4380.62646484375
0.01	-0.0	-0.0	-0.0	5.272886276245117	28.456003189086918	-263.5097351074219	-8.31613540649414	-25.68932342529297	-380.3560791015625	-0.0	-0.0	-0.0	-0.0	-0.0	-0.0	114118.2421875	-8934.890625	-4339.93310546875
0.0105	-0.0	-0.0	-0.0	5.296248912811279	28.39480209350586	-262.8958435058594	-8.417375564575195	-25.514862060546875	-379.9267883300781	-0.0	-0.0	-0.0	-0.0	-0.0	-0.0	114010.203125	-9241.0302734375	-4332.39794921875
0.011	-0.0	-0.0	-0.0	5.263420104980469	28.432598114013672	-262.6361999511719	-8.318938255310059	-25.515071868896484	-379.1665954589844	-0.0	-0.0	-0.0	-0.0	-0.0	-0.0	113828.90625	-9309.18359375	-4299.365234375
0.0115	-0.0	-0.0	-0.0	5.150360107421875	28.723817825317383	-263.1540222167969	-8.37161922454834	-25.711275100708008	-379.7478332519531	-0.0	-0.0	-0.0	-0.0	-0.0	-0.0	113566.4765625	-9413.44921875	-4406.0087890625
0.012	-0.0	-0.0	-0.0	5.474457740783691	28.67409324645996	-264.56597900390625	-8.269134521484375	-25.743682861328125	-379.1412048339844	-0.0	-0.0	-0.0	-0.0	-0.0	-0.0	113602.4375	-9362.41015625	-4373.0341796875
0.0125	-0.0	-0.0	-0.0	5.531051635742188	28.530149459838867	-265.3002624511719	-8.548907279968262	-25.78993225097656	-378.1312255859375	-0.0	-0.0	-0.0	-0.0	-0.0	-0.0	113462.0546875	-9494.390625	-4362.3193359375
0.013000000000000001	-0.0	-0.0	-0.0	5.636341571807861	28.432598114013672	-265.01348876953125	-8.184913635253906	-25.836769104003903	-378.3520812988281	-0.0	-0.0	-0.0	-0.0	-0.0	-0.0	113110.453125	-9526.3271484375	-4365.13232421875
0.0135	-0.0	-0.0	-0.0	5.579465389251709	29.007753372192383	-265.4947509765625	-8.193923950195312	-25.56620216369629	-376.8857727050781	-0.0	-0.0	-0.0	-0.0	-0.0	-0.0	113028.484375	-9581.5576171875	-4305.69921875
0.014	-0.0	-0.0	-0.0	5.855566501617432	29.05651092529297	-265.17169189453125	-7.945018768310547	-25.533580780029297	-377.2710876464844	-0.0	-0.0	-0.0	-0.0	-0.0	-0.0	112967.4296875	-9709.2275390625	-4380.708984375
0.0145	-0.0	-0.0	-0.0	5.766426086425781	29.19297790527344	-268.1912841796875	-7.927644729614258	-25.41280937194824	-375.9143371582031	-0.0	-0.0	-0.0	-0.0	-0.0	-0.0	112964.9296875	-9555.3310546875	-4372.70751953125
0.015	-0.0	-0.0	-0.0	5.7342939376831055	29.21733856201172	-266.3268737792969	-7.750160694122314	-25.15593910217285	-377.9092712402344	-0.0	-0.0	-0.0	-0.0	-0.0	-0.0	112784.5703125	-9851.61328125	-4367.228515625
0.0155	-0.0	-0.0	-0.0	5.670216083526611	29.922861099243164	-265.83154296875	-7.653347969055176	-25.04326629638672	-377.2428283691406	-0.0	-0.0	-0.0	-0.0	-0.0	-0.0	112963.984375	-10190.25	-4267.27734375
0.016	-0.0	-0.0	-0.0	5.666213035583496	30.043888092041016	-267.4122619628906	-7.806549072265625	-25.059118270874023	-378.16204833984375	-0.0	-0.0	-0.0	-0.0	-0.0	-0.0	113121.3515625	-10055.5166015625	-4270.15771484375
0.0165	-0.0	-0.0	-0.0	6.251473426818848	30.00499153137207	-267.55712890625	-7.540416717529297	-25.147300720214844	-378.00482177734375	-0.0	-0.0	-0.0	-0.0	-0.0	-0.0	113312.609375	-9940.4140625	-4315.58544921875
0.017	-0.0	-0.0	-0.0	5.811692714691162	30.22820472717285	-267.6871032714844	-7.313711643218994	-25.365497589111328	-378.82952880859375	-0.0	-0.0	-0.0	-0.0	-0.0	-0.0	113642.6328125	-10076.2802734375	-4299.74658203125
0.0175	-0.0	-0.0	-0.0	5.849739074707031	30.049835205078125	-268.89599609375	-7.5012431144714355	-24.800905227661133	-380.4494323730469	-0.0	-0.0	-0.0	-0.0	-0.0	-0.0	113931.7890625	-10270.326171875	-4218.05419921875
0.018000000000000002	-0.0	-0.0	-0.0	6.1237616539001465	30.1200008392334	-267.8361511230469	-7.362995147705078	-24.71219825744629	-380.0731506347656	-0.0	-0.0	-0.0	-0.0	-0.0	-0.0	114016.53125	-10327.9990234375	-4251.14013671875
